<svg viewBox="0 0 172.25348052978515 190.99000129699706" preserveAspectRatio="xMidYMid meet" class="css-g5ufxp" id="efdfcbfe">
    <defs id="SvgjsDefs1834"/>
    <g id="SvgjsG1835" featurekey="Wg4LIr-0" transform="matrix(9.91253625022356,0,0,9.91253625022356,14.043736601553835,-60.017499367287144)" fill="#111">
        <path d="M12.88 17.58 l-0.76 0.78 c-1.34 1.34 -3.1 2 -4.84 2 l0 0.02 c-1.76 -0.02 -3.52 -0.68 -4.86 -2.02 l0 0 c-1.04 -1.06 -1.7 -2.38 -1.92 -3.76 l2.3 0 c0.18 0.8 0.6 1.56 1.22 2.16 l0 0.02 c0.88 0.9 2.08 1.34 3.26 1.34 l0 0 c0.84 0 1.66 -0.22 2.38 -0.68 l-8 -8 l0.76 -0.78 c1.34 -1.32 3.1 -2 4.86 -2 l0 0 c1.74 0 3.5 0.66 4.84 2 l0 0 c1.06 1.06 1.72 2.4 1.92 3.76 l-2.28 0 c-0.2 -0.78 -0.6 -1.56 -1.22 -2.16 l0 0 c-0.9 -0.92 -2.1 -1.36 -3.26 -1.36 l0 0 c-0.84 0 -1.68 0.24 -2.4 0.68 z"/>
    </g>
    <g id="SvgjsG1836" featurekey="qafomr-0" transform="matrix(1.7,0,0,1.7,-0.85,149.98600311279296)" fill="#111">
        <path d="M5.96 12.879999999999999 c-0.28 -0.72 -0.7 -0.96 -1.16 -0.96 c-0.42 0 -0.84 0.24 -0.84 0.64 c0 0.38 0.24 0.6 0.7 0.76 l1.32 0.46 c1.48 0.54 2.98 1.08 2.98 3.16 c0 2.1 -2.1 3.3 -4.26 3.3 c-1.94 0 -3.76 -1.14 -4.2 -2.96 l2.48 -0.78 c0.26 0.58 0.72 1.24 1.72 1.24 c0.68 0 1.12 -0.44 1.12 -0.84 c0 -0.2 -0.16 -0.46 -0.66 -0.66 l-1.22 -0.44 c-2.08 -0.76 -3.06 -1.82 -3.06 -3.3 c0 -1.94 1.8 -3.08 3.78 -3.08 c2.02 0 3.36 1.1 3.96 2.76 z M15.74 9.42 c2.36 0 5.48 1.78 5.48 5.42 c0 3.66 -3.12 5.36 -5.48 5.36 s-5.48 -1.7 -5.48 -5.36 c0 -3.64 3.12 -5.42 5.48 -5.42 z M15.74 12.2 c-1.2 0 -2.42 0.92 -2.42 2.64 c0 1.66 1.22 2.58 2.42 2.58 s2.44 -0.92 2.44 -2.58 c0 -1.72 -1.24 -2.64 -2.44 -2.64 z M29.32 9.44 c1.94 0 3.92 1.3 3.92 4.6 l0 5.96 l-3.16 0 l0 -5.74 c0 -1.58 -0.54 -2.08 -1.54 -2.08 c-1.42 0 -2.24 1.38 -2.44 1.98 l0 5.84 l-3.16 0 l0 -10.4 l3.16 0 l0 1.8 c0.2 -0.5 1.26 -1.96 3.22 -1.96 z M42.64 9.6 l3.16 0 l0 10.4 c0 3.16 -3.2 4.12 -5.52 4.12 c-1.1 0 -2.1 -0.18 -2.74 -0.52 l0 -2.58 c0.64 0.34 1.6 0.48 2.74 0.48 c1.86 0 2.36 -0.96 2.36 -1.5 l0 -1.04 c-0.14 0.36 -1.08 1.24 -2.68 1.24 c-2.38 0 -5.12 -1.7 -5.12 -5.42 c0 -3.58 2.74 -5.36 5.12 -5.36 c1.6 0 2.54 0.92 2.68 1.14 l0 -0.96 z M40.42 17.42 c1.3 0 2.36 -0.9 2.36 -2.64 c0 -1.68 -1.06 -2.58 -2.36 -2.58 c-1.36 0 -2.52 0.92 -2.52 2.58 c0 1.72 1.16 2.64 2.52 2.64 z M59.42 9.56 l-4.66 10.44 l-2.78 0 l-4.66 -10.44 l3.14 0 l2.92 6.68 l2.9 -6.68 l3.14 0 z M66.1 9.42 c2.36 0 5.66 1.78 5 6.48 l-7.26 0 c0.36 1.08 1.3 1.64 2.56 1.64 c1.28 0 1.68 -0.28 2.4 -0.58 l1.74 1.68 c-0.92 0.9 -2.16 1.56 -4.26 1.56 c-2.58 0 -5.66 -1.78 -5.66 -5.36 c0 -3.64 3.12 -5.42 5.48 -5.42 z M66.1 12.120000000000001 c-0.9 0 -1.82 0.52 -2.22 1.56 l4.42 0 c-0.32 -1.04 -1.3 -1.56 -2.2 -1.56 z M79.58 9.44 c0.28 0 0.56 0 0.82 0.06 l0 3.02 c-0.24 -0.06 -0.52 -0.06 -0.72 -0.06 c-1.92 0 -3.46 1.38 -3.62 3.3 l0 4.24 l-3.16 0 l0 -10.4 l3.16 0 l0 2.54 c0.48 -1.56 1.68 -2.7 3.52 -2.7 z M86.96 12.879999999999999 c-0.28 -0.72 -0.7 -0.96 -1.16 -0.96 c-0.42 0 -0.84 0.24 -0.84 0.64 c0 0.38 0.24 0.6 0.7 0.76 l1.32 0.46 c1.48 0.54 2.98 1.08 2.98 3.16 c0 2.1 -2.1 3.3 -4.26 3.3 c-1.94 0 -3.76 -1.14 -4.2 -2.96 l2.48 -0.78 c0.26 0.58 0.72 1.24 1.72 1.24 c0.68 0 1.12 -0.44 1.12 -0.84 c0 -0.2 -0.16 -0.46 -0.66 -0.66 l-1.22 -0.44 c-2.08 -0.76 -3.06 -1.82 -3.06 -3.3 c0 -1.94 1.8 -3.08 3.78 -3.08 c2.02 0 3.36 1.1 3.96 2.76 z M96.74000000000001 9.42 c2.36 0 5.66 1.78 5 6.48 l-7.26 0 c0.36 1.08 1.3 1.64 2.56 1.64 c1.28 0 1.68 -0.28 2.4 -0.58 l1.74 1.68 c-0.92 0.9 -2.16 1.56 -4.26 1.56 c-2.58 0 -5.66 -1.78 -5.66 -5.36 c0 -3.64 3.12 -5.42 5.48 -5.42 z M96.74000000000001 12.120000000000001 c-0.9 0 -1.82 0.52 -2.22 1.56 l4.42 0 c-0.32 -1.04 -1.3 -1.56 -2.2 -1.56 z"/>
    </g>
</svg>
